<?xml version="1.0" standalone="no"?><!DOCTYPE svg PUBLIC "-//W3C//DTD SVG 1.1//EN" "http://www.w3.org/Graphics/SVG/1.1/DTD/svg11.dtd"><svg t="1655451399170" class="icon" viewBox="0 0 1024 1024" version="1.1" xmlns="http://www.w3.org/2000/svg" p-id="3564" xmlns:xlink="http://www.w3.org/1999/xlink" width="256" height="256"><defs><style type="text/css">@font-face { font-family: feedback-iconfont; src: url("//at.alicdn.com/t/font_1031158_u69w8yhxdu.woff2?t=1630033759944") format("woff2"), url("//at.alicdn.com/t/font_1031158_u69w8yhxdu.woff?t=1630033759944") format("woff"), url("//at.alicdn.com/t/font_1031158_u69w8yhxdu.ttf?t=1630033759944") format("truetype"); }
</style></defs><path d="M928 320c-17.6 0-32-14.4-32-32s14.4-32 32-32 32 14.4 32 32-14.4 32-32 32z m0-192c-17.6 0-32-14.4-32-32s14.4-32 32-32 32 14.4 32 32-14.4 32-32 32z m-80 336c-17.6 0-32-14.4-32-32s14.4-32 32-32 32 14.4 32 32-14.4 32-32 32z m0-144c-17.6 0-32-14.4-32-32s14.4-32 32-32 32 14.4 32 32-14.4 32-32 32z m0-144c-17.6 0-32-14.4-32-32s14.4-32 32-32 32 14.4 32 32-14.4 32-32 32z m-64 192h-16v16c0 35.2-28.8 64-64 64h-64v320h48c35.2 0 64 28.8 64 64v64c0 35.2-28.8 64-64 64H336c-35.2 0-64-28.8-64-64v-64c0-35.2 28.8-64 64-64h48V448h-64c-35.2 0-64-28.8-64-64v-16h-16c-9.6 0-16-6.4-16-16v-128c0-9.6 6.4-16 16-16h16v-16c0-35.2 28.8-64 64-64h144c0-17.6 14.4-32 32-32h32c17.6 0 32 14.4 32 32h144c35.2 0 64 28.8 64 64v16h16c9.6 0 16 6.4 16 16v128c0 9.6-6.4 16-16 16zM352 832c-9.6 0-16 6.4-16 16v32c0 9.6 6.4 16 16 16h320c9.6 0 16-6.4 16-16v-32c0-9.6-6.4-16-16-16H352z m224-64V448h-128v320h128zM512 144c-9.6 0-16 6.4-16 16s6.4 16 16 16 16-6.4 16-16-6.4-16-16-16z m224 96c0-9.6-6.4-16-16-16h-16v-16c0-9.6-6.4-16-16-16h-128c0 17.6-14.4 32-32 32h-32c-17.6 0-32-14.4-32-32h-128c-9.6 0-16 6.4-16 16v16h-16c-9.6 0-16 6.4-16 16v96c0 9.6 6.4 16 16 16h16v16c0 9.6 6.4 16 16 16h352c9.6 0 16-6.4 16-16v-16h16c9.6 0 16-6.4 16-16v-96z m-416 112v-128 128z m-144 112c-17.6 0-32-14.4-32-32s14.4-32 32-32 32 14.4 32 32-14.4 32-32 32z m0-144c-17.6 0-32-14.4-32-32s14.4-32 32-32 32 14.4 32 32-14.4 32-32 32z m0-144c-17.6 0-32-14.4-32-32s14.4-32 32-32 32 14.4 32 32-14.4 32-32 32zM96 512c-17.6 0-32-14.4-32-32s14.4-32 32-32 32 14.4 32 32-14.4 32-32 32z m0-192c-17.6 0-32-14.4-32-32s14.4-32 32-32 32 14.4 32 32-14.4 32-32 32zM96 128c-17.6 0-32-14.4-32-32s14.4-32 32-32 32 14.4 32 32-14.4 32-32 32z m832 320c17.6 0 32 14.4 32 32s-14.4 32-32 32-32-14.4-32-32 14.4-32 32-32z" p-id="3565" fill="#2c2c2c"></path></svg>